_______________________________________________________
[b]Doctor Who – A Christmas Carol (Christmas Special 2010): [/b]
_______________________________________________________

Did you miss The Doctor and Amy Pond? If you do, then we have a very special gift for you this Christmas. On Christmas, December 25, 2010 the world’s longest running sci-fi TV series will air its sixth Christmas special with the Doctor Who – A Christmas Carol episode.

The Doctor Who – A Christmas Carol will star Matt Smith as the Doctor, Karen Gillan as Amy Pond, and Arthur Darvill as Rory Williams as well as guest starring Katherine Jenkins and Michael Gambon. The plot was based on the famous Charles Dickens’ novel, A Christmas Carol.

The Doctor Who Christmas Special will run for one-hour. This episode was directed by Toby Haynes and written by Steven Moffat. According to Steven Moffat, writer for this episode, “It’s all your favorite Christmas movies at once, in an hour, with monsters, and the Doctor, and a honeymoon.

[img]http://img10.imageshack.us/img10/2850/doctorwhochristmascarol.jpg[/img]


[img]http://img812.imageshack.us/img812/7221/doctorwhochristmascarolh.jpg[/img]


___________
[b] MEDIA INFO: [/b]
___________

General

Format                           : AVI
Format/Info                      : Audio Video Interleave
File size                        : 550 MiB
Duration                         : 1h 1mn
Overall bit rate                 : 1 247 Kbps
Writing application              : transcode-1.1.5

[b] Video [/b]

ID                               : 0
Format                           : MPEG-4 Visual
Format profile                   : Advanced Simple@L5
Format settings, BVOP            : Yes
Format settings, QPel            : No
Format settings, GMC             : No warppoints
Format settings, Matrix          : Default (H.263)
Codec ID                         : XVID
Codec ID/Hint                    : XviD
Duration                         : 1h 1mn
Bit rate                         : 1 105 Kbps
Width                            : 624 pixels
Height                           : 352 pixels
Display aspect ratio             : 16:9
Frame rate                       : 25.000 fps
Color space                      : YUV
Chroma subsampling               : 4:2:0
Bit depth                        : 8 bits
Scan type                        : Progressive
Compression mode                 : Lossy
Bits/(Pixel*Frame)               : 0.201
Stream size                      : 488 MiB (89%)
Writing library                  : XviD 1.2.1 (UTC 2008-12-04)

[b] Audio [/b]

ID                               : 1
Format                           : MPEG Audio
Format version                   : Version 1
Format profile                   : Layer 3
Mode                             : Joint stereo
Mode extension                   : MS Stereo
Codec ID                         : 55
Codec ID/Hint                    : MP3
Duration                         : 1h 1mn
Bit rate mode                    : Variable
Bit rate                         : 128 Kbps
Channel(s)                       : 2 channels
Sampling rate                    : 48.0 KHz
Bit depth                        : 16 bits
Compression mode                 : Lossy
Stream size                      : 57.0 MiB (10%)
Alignment                        : Aligned on interleaves
Interleave, duration             : 24 ms (0.60 video frame)

